<svg width="19" height="18" viewBox="0 0 19 18" fill="none" xmlns="http://www.w3.org/2000/svg">
<path fill-rule="evenodd" clip-rule="evenodd" d="M2 4.5C2 4.08579 2.33579 3.75 2.75 3.75H16.25C16.6642 3.75 17 4.08579 17 4.5C17 4.91421 16.6642 5.25 16.25 5.25H2.75C2.33579 5.25 2 4.91421 2 4.5Z" fill="#E32A58"/>
<path fill-rule="evenodd" clip-rule="evenodd" d="M8 2.25C7.80109 2.25 7.61032 2.32902 7.46967 2.46967C7.32902 2.61032 7.25 2.80109 7.25 3V3.75H11.75V3C11.75 2.80109 11.671 2.61032 11.5303 2.46967C11.3897 2.32902 11.1989 2.25 11 2.25H8ZM13.25 3.75V3C13.25 2.40326 13.0129 1.83097 12.591 1.40901C12.169 0.987053 11.5967 0.75 11 0.75H8C7.40326 0.75 6.83097 0.987053 6.40901 1.40901C5.98705 1.83097 5.75 2.40326 5.75 3V3.75H4.25C3.83579 3.75 3.5 4.08579 3.5 4.5V15C3.5 15.5967 3.73705 16.169 4.15901 16.591C4.58097 17.0129 5.15326 17.25 5.75 17.25H13.25C13.8467 17.25 14.419 17.0129 14.841 16.591C15.2629 16.169 15.5 15.5967 15.5 15V4.5C15.5 4.08579 15.1642 3.75 14.75 3.75H13.25ZM5 5.25V15C5 15.1989 5.07902 15.3897 5.21967 15.5303C5.36032 15.671 5.55109 15.75 5.75 15.75H13.25C13.4489 15.75 13.6397 15.671 13.7803 15.5303C13.921 15.3897 14 15.1989 14 15V5.25H5Z" fill="#E32A58"/>
<path fill-rule="evenodd" clip-rule="evenodd" d="M8 7.5C8.41421 7.5 8.75 7.83579 8.75 8.25V12.75C8.75 13.1642 8.41421 13.5 8 13.5C7.58579 13.5 7.25 13.1642 7.25 12.75V8.25C7.25 7.83579 7.58579 7.5 8 7.5Z" fill="#E32A58"/>
<path fill-rule="evenodd" clip-rule="evenodd" d="M11 7.5C11.4142 7.5 11.75 7.83579 11.75 8.25V12.75C11.75 13.1642 11.4142 13.5 11 13.5C10.5858 13.5 10.25 13.1642 10.25 12.75V8.25C10.25 7.83579 10.5858 7.5 11 7.5Z" fill="#E32A58"/>
</svg>
